{"accessors":{"accessor_0":{"bufferView":"bufferView_0","byteOffset":0,"byteStride":0,"componentType":5126,"count":223,"min":[-0.09843199700117111,3.203265905380249,0.15560400485992432],"max":[0.09977100044488907,3.4351251125335693,0.25233399868011475],"type":"VEC3"},"accessor_1":{"bufferView":"bufferView_0","byteOffset":2676,"byteStride":0,"componentType":5126,"count":223,"min":[-0.9995729923248291,-0.9891660213470459,-0.9997860193252563],"max":[0.9981989860534668,0.9700310230255127,0.9998469948768616],"type":"VEC3"},"accessor_2":{"bufferView":"bufferView_0","byteOffset":5352,"byteStride":0,"componentType":5126,"count":223,"min":[0.44100698828697205,0.007542999926954508],"max":[0.9917169809341431,0.9940620064735413],"type":"VEC2"},"accessor_3":{"bufferView":"bufferView_1","byteOffset":0,"byteStride":0,"componentType":5123,"count":1110,"min":[0],"max":[222],"type":"SCALAR"},"accessor_4":{"bufferView":"bufferView_0","byteOffset":7136,"byteStride":0,"componentType":5126,"count":7832,"min":[-1.4724520444869995,0,-0.38133901357650757],"max":[1.4728660583496094,3.6427550315856934,0.38133901357650757],"type":"VEC3"},"accessor_5":{"bufferView":"bufferView_0","byteOffset":101120,"byteStride":0,"componentType":5126,"count":7832,"min":[-0.9999690055847168,-0.9998779892921448,-0.9999390244483948],"max":[0.9999390244483948,0.9996640086174011,0.9998779892921448],"type":"VEC3"},"accessor_6":{"bufferView":"bufferView_0","byteOffset":195104,"byteStride":0,"componentType":5126,"count":7832,"min":[0.0010629999451339245,0.0046190000139176846],"max":[0.9975680112838745,0.9991070032119751],"type":"VEC2"},"accessor_7":{"bufferView":"bufferView_1","byteOffset":2220,"byteStride":0,"componentType":5123,"count":39696,"min":[0],"max":[7831],"type":"SCALAR"}},"asset":{"generator":"obj2gltf","profile":{"api":"WebGL","version":"1.0"},"version":"1.0","premultipliedAlpha":true},"buffers":{"buffer":{"byteLength":339372,"uri":"data:application/octet-stream;base64,","type":"arraybuffer"}},"bufferViews":{"bufferView_0":{"buffer":"buffer","byteLength":257760,"byteOffset":0,"target":34962},"bufferView_1":{"buffer":"buffer","byteLength":81612,"byteOffset":257760,"target":34963}},"extensionsUsed":[],"images":{"Barnes_eye_mouth_d":{"name":"Barnes_eye_mouth_d","uri":"data:image/jpeg;base64,"},"Barnes_d":{"name":"Barnes_d","uri":"data:image/jpeg;base64,"}},"materials":{"Barnes_eye_mouth":{"technique":"technique0","values":{"ambient":[0,0,0,1],"diffuse":"texture_Barnes_eye_mouth_d","emission":[0,0,0,1],"specular":[0,0,0,1],"shininess":96.078431,"transparency":1}},"Barnes":{"technique":"technique0","values":{"ambient":[0,0,0,1],"diffuse":"texture_Barnes_d","emission":[0,0,0,1],"specular":[0,0,0,1],"shininess":96.078431,"transparency":1}}},"meshes":{"Barnes_eye_mouth-Mesh":{"name":"Barnes_eye_mouth-Mesh","primitives":[{"attributes":{"POSITION":"accessor_0","NORMAL":"accessor_1","TEXCOORD_0":"accessor_2"},"indices":"accessor_3","material":"Barnes_eye_mouth","mode":4}]},"Barnes-Mesh":{"name":"Barnes-Mesh","primitives":[{"attributes":{"POSITION":"accessor_4","NORMAL":"accessor_5","TEXCOORD_0":"accessor_6"},"indices":"accessor_7","material":"Barnes","mode":4}]}},"nodes":{"Barnes_eye_mouth":{"name":"Barnes_eye_mouth","meshes":["Barnes_eye_mouth-Mesh"],"children":[],"matrix":[1,0,0,0,0,1,0,0,0,0,1,0,0,0,0,1]},"Barnes":{"name":"Barnes","meshes":["Barnes-Mesh"],"children":[],"matrix":[1,0,0,0,0,1,0,0,0,0,1,0,0,0,0,1]}},"samplers":{"sampler":{"magFilter":9729,"minFilter":9986,"wrapS":10497,"wrapT":10497}},"scene":"scene","scenes":{"scene":{"nodes":["Barnes_eye_mouth","Barnes"]}},"textures":{"texture_Barnes_eye_mouth_d":{"format":6407,"internalFormat":6407,"sampler":"sampler","source":"Barnes_eye_mouth_d","target":3553,"type":5121},"texture_Barnes_d":{"format":6407,"internalFormat":6407,"sampler":"sampler","source":"Barnes_d","target":3553,"type":5121}},"animations":{},"cameras":{},"programs":{"program0":{"attributes":["a_position","a_normal","a_texcoord_0"],"fragmentShader":"fragmentShader0","vertexShader":"vertexShader0"}},"shaders":{"vertexShader0":{"type":35633,"uri":"data:text/plain;base64,"},"fragmentShader0":{"type":35632,"uri":"data:text/plain;base64,"}},"skins":{},"techniques":{"technique0":{"attributes":{"a_position":"position","a_normal":"normal","a_texcoord_0":"texcoord_0"},"parameters":{"modelViewMatrix":{"semantic":"MODELVIEW","type":35676},"projectionMatrix":{"semantic":"PROJECTION","type":35676},"normalMatrix":{"semantic":"MODELVIEWINVERSETRANSPOSE","type":35675},"ambient":{"type":35666},"diffuse":{"type":35678},"emission":{"type":35666},"specular":{"type":35666},"shininess":{"type":5126},"transparency":{"type":5126},"position":{"semantic":"POSITION","type":35665},"normal":{"semantic":"NORMAL","type":35665},"texcoord_0":{"semantic":"TEXCOORD_0","type":35664}},"program":"program0","states":{"enable":[2884,2929]},"uniforms":{"u_modelViewMatrix":"modelViewMatrix","u_projectionMatrix":"projectionMatrix","u_normalMatrix":"normalMatrix","u_ambient":"ambient","u_diffuse":"diffuse","u_emission":"emission","u_specular":"specular","u_shininess":"shininess","u_transparency":"transparency"}}}}
