{"accessors":{"accessor_0":{"bufferView":"bufferView_0","byteOffset":0,"byteStride":0,"componentType":5126,"count":347,"min":[-4.520100116729736,89.11380004882812,-8.774299621582031],"max":[4.4303998947143555,100.18450164794922,4.263599872589111],"type":"VEC3"},"accessor_1":{"bufferView":"bufferView_0","byteOffset":4164,"byteStride":0,"componentType":5126,"count":347,"min":[-0.9984999895095825,-0.957099974155426,-0.9995999932289124],"max":[0.9998000264167786,0.9998999834060669,0.996999979019165],"type":"VEC3"},"accessor_2":{"bufferView":"bufferView_0","byteOffset":8328,"byteStride":0,"componentType":5126,"count":347,"min":[0.0015999999595806003,0.035999998450279236],"max":[0.9955000281333923,0.9742000102996826],"type":"VEC2"},"accessor_3":{"bufferView":"bufferView_1","byteOffset":0,"byteStride":0,"componentType":5123,"count":1389,"min":[0],"max":[346],"type":"SCALAR"},"accessor_4":{"bufferView":"bufferView_0","byteOffset":11104,"byteStride":0,"componentType":5126,"count":61,"min":[-2.5552000999450684,92.98410034179688,2.825700044631958],"max":[-0.8622999787330627,94.67630004882812,3.4795000553131104],"type":"VEC3"},"accessor_5":{"bufferView":"bufferView_0","byteOffset":11836,"byteStride":0,"componentType":5126,"count":61,"min":[-0.9235000014305115,-0.926800012588501,0.3716000020503998],"max":[0.9240000247955322,0.9223999977111816,1],"type":"VEC3"},"accessor_6":{"bufferView":"bufferView_0","byteOffset":12568,"byteStride":0,"componentType":5126,"count":61,"min":[-0.17249999940395355,-0.17249999940395355],"max":[1.1725000143051147,1.1725000143051147],"type":"VEC2"},"accessor_7":{"bufferView":"bufferView_1","byteOffset":2778,"byteStride":0,"componentType":5123,"count":324,"min":[0],"max":[60],"type":"SCALAR"},"accessor_8":{"bufferView":"bufferView_0","byteOffset":13056,"byteStride":0,"componentType":5126,"count":61,"min":[0.6524999737739563,92.98410034179688,2.825700044631958],"max":[2.3454999923706055,94.67630004882812,3.4795000553131104],"type":"VEC3"},"accessor_9":{"bufferView":"bufferView_0","byteOffset":13788,"byteStride":0,"componentType":5126,"count":61,"min":[-0.9235000014305115,-0.926800012588501,0.3716000020503998],"max":[0.9240000247955322,0.9223999977111816,1],"type":"VEC3"},"accessor_10":{"bufferView":"bufferView_0","byteOffset":14520,"byteStride":0,"componentType":5126,"count":61,"min":[-0.17249999940395355,-0.17249999940395355],"max":[1.1725000143051147,1.1725000143051147],"type":"VEC2"},"accessor_11":{"bufferView":"bufferView_1","byteOffset":3426,"byteStride":0,"componentType":5123,"count":324,"min":[0],"max":[60],"type":"SCALAR"},"accessor_12":{"bufferView":"bufferView_0","byteOffset":15008,"byteStride":0,"componentType":5126,"count":2613,"min":[-38.64789962768555,-0.06689999997615814,-8.579700469970703],"max":[38.74879837036133,89.15740203857422,8.787300109863281],"type":"VEC3"},"accessor_13":{"bufferView":"bufferView_0","byteOffset":46364,"byteStride":0,"componentType":5126,"count":2613,"min":[-0.9980000257492065,-0.9779000282287598,-0.9998999834060669],"max":[0.9976999759674072,0.9994999766349792,1],"type":"VEC3"},"accessor_14":{"bufferView":"bufferView_0","byteOffset":77720,"byteStride":0,"componentType":5126,"count":2613,"min":[0.002899999963119626,0.003800000064074993],"max":[0.9947999715805054,0.9959999918937683],"type":"VEC2"},"accessor_15":{"bufferView":"bufferView_1","byteOffset":4074,"byteStride":0,"componentType":5123,"count":12423,"min":[0],"max":[2612],"type":"SCALAR"},"accessor_16":{"bufferView":"bufferView_0","byteOffset":98624,"byteStride":0,"componentType":5126,"count":1496,"min":[-4.4959001541137695,84.4041976928711,-6.086400032043457],"max":[4.370299816131592,99.80380249023438,5.308499813079834],"type":"VEC3"},"accessor_17":{"bufferView":"bufferView_0","byteOffset":116576,"byteStride":0,"componentType":5126,"count":1496,"min":[-0.9973999857902527,-1,-0.9995999932289124],"max":[0.9988999962806702,0.9947999715805054,0.9991000294685364],"type":"VEC3"},"accessor_18":{"bufferView":"bufferView_0","byteOffset":134528,"byteStride":0,"componentType":5126,"count":1496,"min":[0.009499999694526196,0.007699999958276749],"max":[0.9904000163078308,0.8942999839782715],"type":"VEC2"},"accessor_19":{"bufferView":"bufferView_1","byteOffset":28920,"byteStride":0,"componentType":5123,"count":8538,"min":[0],"max":[1495],"type":"SCALAR"},"accessor_20":{"bufferView":"bufferView_0","byteOffset":146496,"byteStride":0,"componentType":5126,"count":346,"min":[-1.9119000434875488,89.72260284423828,0.032600000500679016],"max":[1.8457000255584717,91.77880096435547,4.439000129699707],"type":"VEC3"},"accessor_21":{"bufferView":"bufferView_0","byteOffset":150648,"byteStride":0,"componentType":5126,"count":346,"min":[-0.982200026512146,-0.9987000226974487,-0.9775999784469604],"max":[0.9811000227928162,0.9962000250816345,0.9983000159263611],"type":"VEC3"},"accessor_22":{"bufferView":"bufferView_0","byteOffset":154800,"byteStride":0,"componentType":5126,"count":346,"min":[-0.9909999966621399,0.01549999974668026],"max":[-0.01140000019222498,0.989799976348877],"type":"VEC2"},"accessor_23":{"bufferView":"bufferView_1","byteOffset":45996,"byteStride":0,"componentType":5123,"count":1650,"min":[0],"max":[345],"type":"SCALAR"},"accessor_24":{"bufferView":"bufferView_0","byteOffset":157568,"byteStride":0,"componentType":5126,"count":42,"min":[-0.5909000039100647,70.76830291748047,-7.618599891662598],"max":[0.491100013256073,85.20330047607422,-5.263199806213379],"type":"VEC3"},"accessor_25":{"bufferView":"bufferView_0","byteOffset":158072,"byteStride":0,"componentType":5126,"count":42,"min":[-0.9980000257492065,-0.27160000801086426,-0.951200008392334],"max":[0.9987000226974487,0.438400000333786,-0.05139999836683273],"type":"VEC3"},"accessor_26":{"bufferView":"bufferView_0","byteOffset":158576,"byteStride":0,"componentType":5126,"count":42,"min":[0.005200000014156103,0.0005000000237487257],"max":[0.9965999722480774,0.9950000047683716],"type":"VEC2"},"accessor_27":{"bufferView":"bufferView_1","byteOffset":49296,"byteStride":0,"componentType":5123,"count":180,"min":[0],"max":[41],"type":"SCALAR"}},"asset":{"generator":"obj2gltf","profile":{"api":"WebGL","version":"1.0"},"version":"1.0","premultipliedAlpha":true},"buffers":{"buffer":{"byteLength":208568,"uri":"data:application/octet-stream;base64,","type":"arraybuffer"}},"bufferViews":{"bufferView_0":{"buffer":"buffer","byteLength":158912,"byteOffset":0,"target":34962},"bufferView_1":{"buffer":"buffer","byteLength":49656,"byteOffset":158912,"target":34963}},"extensionsUsed":[],"images":{},"materials":{"default":{"technique":"technique0","values":{"ambient":[0,0,0,1],"diffuse":[0.5,0.5,0.5,1],"emission":[0,0,0,1],"specular":[0,0,0,1],"shininess":0,"transparency":1}}},"meshes":{"DrawCall_0293_1":{"name":"DrawCall_0293_1","primitives":[{"attributes":{"POSITION":"accessor_0","NORMAL":"accessor_1","TEXCOORD_0":"accessor_2"},"indices":"accessor_3","material":"default","mode":4}]},"DrawCall_0294_1":{"name":"DrawCall_0294_1","primitives":[{"attributes":{"POSITION":"accessor_4","NORMAL":"accessor_5","TEXCOORD_0":"accessor_6"},"indices":"accessor_7","material":"default","mode":4}]},"DrawCall_0295_1":{"name":"DrawCall_0295_1","primitives":[{"attributes":{"POSITION":"accessor_8","NORMAL":"accessor_9","TEXCOORD_0":"accessor_10"},"indices":"accessor_11","material":"default","mode":4}]},"DrawCall_0330_1":{"name":"DrawCall_0330_1","primitives":[{"attributes":{"POSITION":"accessor_12","NORMAL":"accessor_13","TEXCOORD_0":"accessor_14"},"indices":"accessor_15","material":"default","mode":4}]},"DrawCall_0331_1":{"name":"DrawCall_0331_1","primitives":[{"attributes":{"POSITION":"accessor_16","NORMAL":"accessor_17","TEXCOORD_0":"accessor_18"},"indices":"accessor_19","material":"default","mode":4}]},"DrawCall_0332_1":{"name":"DrawCall_0332_1","primitives":[{"attributes":{"POSITION":"accessor_20","NORMAL":"accessor_21","TEXCOORD_0":"accessor_22"},"indices":"accessor_23","material":"default","mode":4}]},"DrawCall_0357_1":{"name":"DrawCall_0357_1","primitives":[{"attributes":{"POSITION":"accessor_24","NORMAL":"accessor_25","TEXCOORD_0":"accessor_26"},"indices":"accessor_27","material":"default","mode":4}]}},"nodes":{"DrawCall_0293":{"name":"DrawCall_0293","meshes":["DrawCall_0293_1"],"children":[],"matrix":[1,0,0,0,0,1,0,0,0,0,1,0,0,0,0,1]},"DrawCall_0294":{"name":"DrawCall_0294","meshes":["DrawCall_0294_1"],"children":[],"matrix":[1,0,0,0,0,1,0,0,0,0,1,0,0,0,0,1]},"DrawCall_0295":{"name":"DrawCall_0295","meshes":["DrawCall_0295_1"],"children":[],"matrix":[1,0,0,0,0,1,0,0,0,0,1,0,0,0,0,1]},"DrawCall_0330":{"name":"DrawCall_0330","meshes":["DrawCall_0330_1"],"children":[],"matrix":[1,0,0,0,0,1,0,0,0,0,1,0,0,0,0,1]},"DrawCall_0331":{"name":"DrawCall_0331","meshes":["DrawCall_0331_1"],"children":[],"matrix":[1,0,0,0,0,1,0,0,0,0,1,0,0,0,0,1]},"DrawCall_0332":{"name":"DrawCall_0332","meshes":["DrawCall_0332_1"],"children":[],"matrix":[1,0,0,0,0,1,0,0,0,0,1,0,0,0,0,1]},"DrawCall_0357":{"name":"DrawCall_0357","meshes":["DrawCall_0357_1"],"children":[],"matrix":[1,0,0,0,0,1,0,0,0,0,1,0,0,0,0,1]}},"samplers":{},"scene":"scene","scenes":{"scene":{"nodes":["DrawCall_0293","DrawCall_0294","DrawCall_0295","DrawCall_0330","DrawCall_0331","DrawCall_0332","DrawCall_0357"]}},"textures":{},"animations":{},"cameras":{},"programs":{"program0":{"attributes":["a_position","a_normal","a_texcoord_0"],"fragmentShader":"fragmentShader0","vertexShader":"vertexShader0"}},"shaders":{"vertexShader0":{"type":35633,"uri":"data:text/plain;base64,"},"fragmentShader0":{"type":35632,"uri":"data:text/plain;base64,"}},"skins":{},"techniques":{"technique0":{"attributes":{"a_position":"position","a_normal":"normal","a_texcoord_0":"texcoord_0"},"parameters":{"modelViewMatrix":{"semantic":"MODELVIEW","type":35676},"projectionMatrix":{"semantic":"PROJECTION","type":35676},"normalMatrix":{"semantic":"MODELVIEWINVERSETRANSPOSE","type":35675},"ambient":{"type":35666},"diffuse":{"type":35666},"emission":{"type":35666},"specular":{"type":35666},"shininess":{"type":5126},"transparency":{"type":5126},"position":{"semantic":"POSITION","type":35665},"normal":{"semantic":"NORMAL","type":35665},"texcoord_0":{"semantic":"TEXCOORD_0","type":5126}},"program":"program0","states":{"enable":[2884,2929]},"uniforms":{"u_modelViewMatrix":"modelViewMatrix","u_projectionMatrix":"projectionMatrix","u_normalMatrix":"normalMatrix","u_ambient":"ambient","u_diffuse":"diffuse","u_emission":"emission","u_specular":"specular","u_shininess":"shininess","u_transparency":"transparency"}}}}
